<?xml version="1.0" encoding="UTF-8"?><svg xmlns="http://www.w3.org/2000/svg" xmlns:xlink="http://www.w3.org/1999/xlink" contentScriptType="text/ecmascript" width="375" zoomAndPan="magnify" contentStyleType="text/css" viewBox="0 0 375 374.999991" height="374.999991" preserveAspectRatio="xMidYMid meet" version="1.0"><defs><clipPath id="clip-0"><path d="M 141.929688 136.761719 L 232.777344 136.761719 L 232.777344 175 L 141.929688 175 Z M 141.929688 136.761719 " clip-rule="nonzero"/></clipPath><clipPath id="clip-1"><path d="M 141.929688 174 L 209 174 L 209 238.210938 L 141.929688 238.210938 Z M 141.929688 174 " clip-rule="nonzero"/></clipPath></defs><rect x="-37.5" width="450" fill="rgb(100%, 100%, 100%)" y="-37.499999" height="449.999989" fill-opacity="1"/><rect x="-37.5" width="450" fill="rgb(100%, 100%, 100%)" y="-37.499999" height="449.999989" fill-opacity="1"/><rect x="-37.5" width="450" fill="rgb(100%, 100%, 100%)" y="-37.499999" height="449.999989" fill-opacity="1"/><g clip-path="url(#clip-0)"><path fill="rgb(0%, 78.819275%, 100%)" d="M 153.460938 136.863281 L 221.265625 136.863281 C 222.023438 136.863281 222.773438 136.9375 223.515625 137.085938 C 224.261719 137.234375 224.980469 137.453125 225.679688 137.742188 C 226.378906 138.035156 227.042969 138.390625 227.675781 138.8125 C 228.304688 139.234375 228.886719 139.714844 229.421875 140.25 C 229.957031 140.789062 230.433594 141.371094 230.855469 142.003906 C 231.277344 142.636719 231.632812 143.300781 231.921875 144.003906 C 232.210938 144.703125 232.429688 145.425781 232.578125 146.171875 C 232.726562 146.917969 232.800781 147.667969 232.800781 148.429688 L 232.800781 162.542969 C 232.800781 163.300781 232.726562 164.054688 232.578125 164.800781 C 232.429688 165.542969 232.210938 166.265625 231.921875 166.96875 C 231.632812 167.671875 231.277344 168.335938 230.855469 168.96875 C 230.433594 169.597656 229.957031 170.183594 229.421875 170.71875 C 228.886719 171.257812 228.304688 171.738281 227.675781 172.160156 C 227.042969 172.582031 226.378906 172.9375 225.679688 173.226562 C 224.980469 173.519531 224.261719 173.738281 223.515625 173.886719 C 222.773438 174.035156 222.023438 174.109375 221.265625 174.109375 L 141.929688 174.109375 L 141.929688 148.429688 C 141.929688 147.667969 142.003906 146.917969 142.152344 146.171875 C 142.296875 145.425781 142.515625 144.703125 142.808594 144.003906 C 143.097656 143.300781 143.453125 142.636719 143.871094 142.003906 C 144.292969 141.371094 144.769531 140.789062 145.308594 140.25 C 145.84375 139.714844 146.425781 139.234375 147.054688 138.8125 C 147.683594 138.390625 148.347656 138.035156 149.046875 137.742188 C 149.746094 137.453125 150.46875 137.234375 151.210938 137.085938 C 151.953125 136.9375 152.703125 136.863281 153.460938 136.863281 Z M 153.460938 136.863281 " fill-opacity="1" fill-rule="nonzero"/></g><g clip-path="url(#clip-1)"><path fill="rgb(0%, 78.819275%, 100%)" d="M 196.582031 174.109375 L 141.929688 174.109375 L 141.929688 238.109375 L 168.609375 211.34375 L 196.582031 211.34375 C 197.335938 211.34375 198.085938 211.269531 198.832031 211.121094 C 199.574219 210.972656 200.292969 210.753906 200.992188 210.460938 C 201.691406 210.171875 202.359375 209.816406 202.988281 209.394531 C 203.617188 208.972656 204.199219 208.492188 204.734375 207.957031 C 205.269531 207.417969 205.746094 206.835938 206.167969 206.203125 C 206.589844 205.570312 206.945312 204.90625 207.234375 204.203125 C 207.523438 203.5 207.742188 202.777344 207.890625 202.035156 C 208.039062 201.289062 208.113281 200.535156 208.113281 199.777344 L 208.113281 185.667969 C 208.113281 184.910156 208.039062 184.15625 207.890625 183.414062 C 207.742188 182.667969 207.523438 181.945312 207.234375 181.242188 C 206.941406 180.542969 206.585938 179.875 206.167969 179.246094 C 205.746094 178.613281 205.269531 178.03125 204.734375 177.492188 C 204.199219 176.957031 203.613281 176.476562 202.984375 176.054688 C 202.355469 175.632812 201.691406 175.277344 200.992188 174.988281 C 200.292969 174.695312 199.570312 174.476562 198.828125 174.328125 C 198.085938 174.183594 197.335938 174.109375 196.582031 174.109375 Z M 196.582031 174.109375 " fill-opacity="1" fill-rule="nonzero"/><path fill="rgb(32.159424%, 44.309998%, 100%)" d="M 196.582031 174.109375 L 153.460938 174.109375 C 152.703125 174.109375 151.953125 174.183594 151.210938 174.328125 C 150.46875 174.476562 149.746094 174.699219 149.046875 174.988281 C 148.347656 175.277344 147.683594 175.636719 147.054688 176.058594 C 146.425781 176.480469 145.84375 176.957031 145.308594 177.496094 C 144.769531 178.03125 144.292969 178.617188 143.871094 179.246094 C 143.453125 179.878906 143.097656 180.546875 142.808594 181.246094 C 142.515625 181.949219 142.296875 182.671875 142.152344 183.417969 C 142.003906 184.160156 141.929688 184.914062 141.929688 185.671875 L 141.929688 238.109375 L 164.128906 215.84375 C 165.5625 214.402344 167.21875 213.292969 169.09375 212.515625 C 170.964844 211.734375 172.917969 211.34375 174.945312 211.34375 L 196.582031 211.34375 C 197.335938 211.34375 198.085938 211.269531 198.832031 211.121094 C 199.574219 210.972656 200.292969 210.753906 200.992188 210.460938 C 201.691406 210.171875 202.359375 209.816406 202.988281 209.394531 C 203.617188 208.972656 204.199219 208.492188 204.734375 207.957031 C 205.269531 207.417969 205.746094 206.835938 206.167969 206.203125 C 206.589844 205.570312 206.945312 204.90625 207.234375 204.203125 C 207.523438 203.5 207.742188 202.777344 207.890625 202.035156 C 208.039062 201.289062 208.113281 200.535156 208.113281 199.777344 L 208.113281 185.667969 C 208.113281 184.910156 208.039062 184.15625 207.890625 183.414062 C 207.742188 182.667969 207.523438 181.945312 207.234375 181.242188 C 206.941406 180.542969 206.585938 179.875 206.167969 179.246094 C 205.746094 178.613281 205.269531 178.03125 204.734375 177.492188 C 204.199219 176.957031 203.613281 176.476562 202.984375 176.054688 C 202.355469 175.632812 201.691406 175.277344 200.992188 174.988281 C 200.292969 174.695312 199.570312 174.476562 198.828125 174.328125 C 198.085938 174.183594 197.335938 174.109375 196.582031 174.109375 Z M 196.582031 174.109375 " fill-opacity="1" fill-rule="nonzero"/></g><path stroke-linecap="round" transform="matrix(3.754682, 0, 0, 3.78529, 159.028544, 193.127462)" fill="none" stroke-linejoin="miter" d="M 0.500097 0.000381617 L 8.776224 0.000381617 " stroke="rgb(10.5896%, 4.708862%, 15.289307%)" stroke-width="1" stroke-opacity="1" stroke-miterlimit="4"/><path stroke-linecap="round" transform="matrix(3.775066, 0, 0, 3.78529, 159.028544, 155.72879)" fill="none" stroke-linejoin="miter" d="M 0.500501 0.000443553 L 14.543095 0.000443553 " stroke="rgb(10.5896%, 4.708862%, 15.289307%)" stroke-width="1" stroke-opacity="1" stroke-miterlimit="4"/></svg>