<?xml version="1.0" encoding="UTF-8"?><svg xmlns="http://www.w3.org/2000/svg" xmlns:xlink="http://www.w3.org/1999/xlink" contentScriptType="text/ecmascript" width="375" zoomAndPan="magnify" contentStyleType="text/css" viewBox="0 0 375 374.999991" height="374.999991" preserveAspectRatio="xMidYMid meet" version="1.0"><defs><clipPath id="clip-0"><path d="M 151.53125 147.453125 L 223.238281 147.453125 L 223.238281 177 L 151.53125 177 Z M 151.53125 147.453125 " clip-rule="nonzero"/></clipPath><clipPath id="clip-1"><path d="M 151.53125 176 L 204 176 L 204 227.527344 L 151.53125 227.527344 Z M 151.53125 176 " clip-rule="nonzero"/></clipPath></defs><g clip-path="url(#clip-0)"><path fill="rgb(0%, 78.819275%, 100%)" d="M 160.632812 147.53125 L 214.152344 147.53125 C 214.75 147.53125 215.34375 147.589844 215.929688 147.707031 C 216.515625 147.824219 217.085938 147.996094 217.636719 148.226562 C 218.1875 148.457031 218.714844 148.738281 219.210938 149.070312 C 219.707031 149.402344 220.167969 149.78125 220.589844 150.207031 C 221.011719 150.628906 221.390625 151.089844 221.722656 151.589844 C 222.054688 152.085938 222.332031 152.613281 222.5625 153.167969 C 222.792969 153.722656 222.964844 154.292969 223.082031 154.878906 C 223.195312 155.46875 223.253906 156.0625 223.253906 156.660156 L 223.253906 167.800781 C 223.253906 168.398438 223.195312 168.992188 223.082031 169.582031 C 222.964844 170.167969 222.792969 170.742188 222.5625 171.292969 C 222.332031 171.847656 222.054688 172.375 221.722656 172.871094 C 221.390625 173.371094 221.011719 173.832031 220.589844 174.253906 C 220.167969 174.679688 219.707031 175.058594 219.210938 175.390625 C 218.714844 175.722656 218.1875 176.003906 217.636719 176.234375 C 217.085938 176.464844 216.515625 176.636719 215.929688 176.753906 C 215.34375 176.871094 214.75 176.929688 214.152344 176.929688 L 151.53125 176.929688 L 151.53125 156.660156 C 151.53125 156.0625 151.589844 155.46875 151.707031 154.878906 C 151.820312 154.292969 151.996094 153.722656 152.222656 153.167969 C 152.453125 152.613281 152.730469 152.085938 153.0625 151.589844 C 153.394531 151.089844 153.773438 150.628906 154.195312 150.207031 C 154.617188 149.78125 155.078125 149.402344 155.574219 149.070312 C 156.074219 148.738281 156.597656 148.457031 157.148438 148.226562 C 157.703125 147.996094 158.269531 147.824219 158.855469 147.707031 C 159.441406 147.589844 160.035156 147.53125 160.632812 147.53125 Z M 160.632812 147.53125 " fill-opacity="1" fill-rule="nonzero"/></g><g clip-path="url(#clip-1)"><path fill="rgb(0%, 78.819275%, 100%)" d="M 194.667969 176.929688 L 151.53125 176.929688 L 151.53125 227.445312 L 172.589844 206.320312 L 194.667969 206.320312 C 195.265625 206.320312 195.855469 206.261719 196.441406 206.144531 C 197.027344 206.027344 197.597656 205.855469 198.152344 205.625 C 198.703125 205.394531 199.226562 205.113281 199.722656 204.78125 C 200.222656 204.449219 200.679688 204.070312 201.101562 203.644531 C 201.527344 203.222656 201.902344 202.761719 202.234375 202.261719 C 202.566406 201.765625 202.847656 201.238281 203.078125 200.683594 C 203.304688 200.128906 203.476562 199.558594 203.59375 198.972656 C 203.710938 198.382812 203.769531 197.789062 203.769531 197.191406 L 203.769531 186.054688 C 203.769531 185.453125 203.710938 184.863281 203.59375 184.273438 C 203.476562 183.6875 203.304688 183.117188 203.074219 182.5625 C 202.847656 182.007812 202.566406 181.484375 202.234375 180.984375 C 201.902344 180.484375 201.523438 180.023438 201.101562 179.601562 C 200.679688 179.179688 200.21875 178.800781 199.722656 178.46875 C 199.226562 178.132812 198.703125 177.851562 198.148438 177.625 C 197.597656 177.394531 197.027344 177.222656 196.441406 177.105469 C 195.855469 176.988281 195.265625 176.929688 194.667969 176.929688 Z M 194.667969 176.929688 " fill-opacity="1" fill-rule="nonzero"/><path fill="rgb(32.159424%, 44.309998%, 100%)" d="M 194.667969 176.929688 L 160.632812 176.929688 C 160.035156 176.929688 159.441406 176.988281 158.855469 177.105469 C 158.269531 177.222656 157.703125 177.394531 157.148438 177.625 C 156.597656 177.851562 156.074219 178.132812 155.574219 178.46875 C 155.078125 178.800781 154.617188 179.179688 154.195312 179.601562 C 153.773438 180.027344 153.394531 180.488281 153.0625 180.984375 C 152.730469 181.484375 152.453125 182.011719 152.222656 182.5625 C 151.996094 183.117188 151.820312 183.6875 151.707031 184.277344 C 151.589844 184.863281 151.53125 185.457031 151.53125 186.058594 L 151.53125 227.445312 L 169.054688 209.871094 C 170.1875 208.734375 171.492188 207.859375 172.96875 207.246094 C 174.449219 206.628906 175.988281 206.320312 177.589844 206.320312 L 194.667969 206.320312 C 195.265625 206.320312 195.855469 206.261719 196.441406 206.144531 C 197.027344 206.027344 197.597656 205.855469 198.152344 205.625 C 198.703125 205.394531 199.226562 205.113281 199.722656 204.78125 C 200.222656 204.449219 200.679688 204.070312 201.101562 203.644531 C 201.527344 203.222656 201.902344 202.761719 202.234375 202.261719 C 202.566406 201.765625 202.847656 201.238281 203.078125 200.683594 C 203.304688 200.128906 203.476562 199.558594 203.59375 198.972656 C 203.710938 198.382812 203.769531 197.789062 203.769531 197.191406 L 203.769531 186.054688 C 203.769531 185.453125 203.710938 184.863281 203.59375 184.273438 C 203.476562 183.6875 203.304688 183.117188 203.074219 182.5625 C 202.847656 182.007812 202.566406 181.484375 202.234375 180.984375 C 201.902344 180.484375 201.523438 180.023438 201.101562 179.601562 C 200.679688 179.179688 200.21875 178.800781 199.722656 178.46875 C 199.226562 178.132812 198.703125 177.851562 198.148438 177.625 C 197.597656 177.394531 197.027344 177.222656 196.441406 177.105469 C 195.855469 176.988281 195.265625 176.929688 194.667969 176.929688 Z M 194.667969 176.929688 " fill-opacity="1" fill-rule="nonzero"/></g><path stroke-linecap="round" transform="matrix(2.96363, 0, 0, 2.98779, 165.027034, 191.941833)" fill="none" stroke-linejoin="miter" d="M 0.49965 -0.00014283 L 8.775765 -0.00014283 " stroke="rgb(10.5896%, 4.708862%, 15.289307%)" stroke-width="1" stroke-opacity="1" stroke-miterlimit="4"/><path stroke-linecap="round" transform="matrix(2.97972, 0, 0, 2.98779, 165.027034, 162.422464)" fill="none" stroke-linejoin="miter" d="M 0.499574 -0.000197047 L 14.543731 -0.000197047 " stroke="rgb(10.5896%, 4.708862%, 15.289307%)" stroke-width="1" stroke-opacity="1" stroke-miterlimit="4"/></svg>